<svg xmlns="http://www.w3.org/2000/svg" data-name="Layer 1" viewBox="0 0 100 125" x="0px" y="0px" fill="white"><title>A</title><path d="M18.92358,17.66028v2.82147a.86486.86486,0,0,0,.86487.86487h60.4231a.86486.86486,0,0,0,.86487-.86487V17.66046a3.75312,3.75312,0,0,0-3.75312-3.75311H58.74652a8.74782,8.74782,0,1,0-17.49274,0H22.67651A3.75292,3.75292,0,0,0,18.92358,17.66028Z"/><path d="M77.91376,85.40619V26.74207H22.0863V85.40619A9.39854,9.39854,0,0,0,31.27655,95H68.72327A9.39878,9.39878,0,0,0,77.91376,85.40619ZM37.595,82.14337a3.10355,3.10355,0,1,1-6.20709,0V39.59906a3.10355,3.10355,0,1,1,6.20709,0Zm15.50879,0a3.10358,3.10358,0,1,1-6.20715,0V39.59906a3.10358,3.10358,0,1,1,6.20715,0Zm15.50879,0a3.10358,3.10358,0,1,1-6.20715,0V39.59906a3.10358,3.10358,0,1,1,6.20715,0Z"/></svg>